<svg xmlns="http://www.w3.org/2000/svg" width="1200" height="630" viewBox="0 0 1200 630" role="img" aria-label="Brisbane Access Solutions">
<defs>
<linearGradient id="g" x1="0" y1="0" x2="1" y2="1">
<stop offset="0" stop-color="#1d2026"/><stop offset="1" stop-color="#14161a"/>
</linearGradient>
<pattern id="rack" width="18" height="18" patternUnits="userSpaceOnUse" patternTransform="rotate(115)">
<rect width="18" height="18" fill="none"/><rect width="1.5" height="18" fill="rgba(255,255,255,0.04)"/>
</pattern>
</defs>
<rect width="1200" height="630" fill="url(#g)"/>
<rect width="1200" height="630" fill="url(#rack)"/>
<g opacity="0.9"><line x1="450.0" y1="156.79999999999998" x2="450.0" y2="266.79999999999995" stroke="#f7a600" stroke-width="3"/><line x1="500.0" y1="156.79999999999998" x2="500.0" y2="266.79999999999995" stroke="#f7a600" stroke-width="3"/><line x1="550.0" y1="156.79999999999998" x2="550.0" y2="266.79999999999995" stroke="#f7a600" stroke-width="3"/><line x1="600.0" y1="156.79999999999998" x2="600.0" y2="266.79999999999995" stroke="#f7a600" stroke-width="3"/><line x1="650.0" y1="156.79999999999998" x2="650.0" y2="266.79999999999995" stroke="#f7a600" stroke-width="3"/><line x1="700.0" y1="156.79999999999998" x2="700.0" y2="266.79999999999995" stroke="#f7a600" stroke-width="3"/><line x1="750.0" y1="156.79999999999998" x2="750.0" y2="266.79999999999995" stroke="#f7a600" stroke-width="3"/><line x1="410.0" y1="156.79999999999998" x2="790.0" y2="156.79999999999998" stroke="#f5f4f1" stroke-width="3"/><line x1="410.0" y1="266.79999999999995" x2="790.0" y2="266.79999999999995" stroke="#f5f4f1" stroke-width="3"/><line x1="340.0" y1="288.79999999999995" x2="860.0" y2="288.79999999999995" stroke="#f5f4f1" stroke-width="3" stroke-dasharray="10 6"/></g>
<rect x="0" y="624" width="1200" height="6" fill="#f7a600"/>
<text x="600.0" y="390.6" font-family="Barlow Condensed, Arial Narrow, sans-serif" font-size="47" font-weight="700" fill="#f5f4f1" text-anchor="middle" letter-spacing="2" style="text-transform:uppercase">BRISBANE ACCESS SOLUTIONS</text>
<text x="600.0" y="434.70000000000005" font-family="Archivo, Arial, sans-serif" font-size="17" fill="#9aa0a8" text-anchor="middle">Placeholder - replace with a real photo (same file name)</text>
</svg>