<svg xmlns="http://www.w3.org/2000/svg" width="1200" height="800" viewBox="0 0 1200 800" role="img" aria-label="Sliding gate">
<defs>
<linearGradient id="g" x1="0" y1="0" x2="1" y2="1">
<stop offset="0" stop-color="#1d2026"/><stop offset="1" stop-color="#14161a"/>
</linearGradient>
<pattern id="rack" width="18" height="18" patternUnits="userSpaceOnUse" patternTransform="rotate(115)">
<rect width="18" height="18" fill="none"/><rect width="1.5" height="18" fill="rgba(255,255,255,0.04)"/>
</pattern>
</defs>
<rect width="1200" height="800" fill="url(#g)"/>
<rect width="1200" height="800" fill="url(#rack)"/>
<g opacity="0.9"><line x1="450.0" y1="218.0" x2="450.0" y2="328.0" stroke="#f7a600" stroke-width="3"/><line x1="500.0" y1="218.0" x2="500.0" y2="328.0" stroke="#f7a600" stroke-width="3"/><line x1="550.0" y1="218.0" x2="550.0" y2="328.0" stroke="#f7a600" stroke-width="3"/><line x1="600.0" y1="218.0" x2="600.0" y2="328.0" stroke="#f7a600" stroke-width="3"/><line x1="650.0" y1="218.0" x2="650.0" y2="328.0" stroke="#f7a600" stroke-width="3"/><line x1="700.0" y1="218.0" x2="700.0" y2="328.0" stroke="#f7a600" stroke-width="3"/><line x1="750.0" y1="218.0" x2="750.0" y2="328.0" stroke="#f7a600" stroke-width="3"/><line x1="410.0" y1="218.0" x2="790.0" y2="218.0" stroke="#f5f4f1" stroke-width="3"/><line x1="410.0" y1="328.0" x2="790.0" y2="328.0" stroke="#f5f4f1" stroke-width="3"/><line x1="340.0" y1="350.0" x2="860.0" y2="350.0" stroke="#f5f4f1" stroke-width="3" stroke-dasharray="10 6"/></g>
<rect x="0" y="794" width="1200" height="6" fill="#f7a600"/>
<text x="600.0" y="496.0" font-family="Barlow Condensed, Arial Narrow, sans-serif" font-size="60" font-weight="700" fill="#f5f4f1" text-anchor="middle" letter-spacing="2" style="text-transform:uppercase">SLIDING GATE</text>
<text x="600.0" y="552.0" font-family="Archivo, Arial, sans-serif" font-size="22" fill="#9aa0a8" text-anchor="middle">Placeholder - replace with a real photo (same file name)</text>
</svg>